<?xml version="1.0" encoding="UTF-8"?>
<svg xmlns="http://www.w3.org/2000/svg" xmlns:xlink="http://www.w3.org/1999/xlink" width="504pt" height="504pt" viewBox="0 0 504 504" version="1.1">
<g id="surface6">
<rect x="0" y="0" width="504" height="504" style="fill:rgb(100%,100%,100%);fill-opacity:1;stroke:none;"/>
<path style=" stroke:none;fill-rule:nonzero;fill:rgb(60%,60%,60%);fill-opacity:1;" d="M 0 25.199219 L 478.800781 25.199219 L 478.800781 0 L 0 0 Z M 0 25.199219 "/>
<path style=" stroke:none;fill-rule:nonzero;fill:rgb(60%,60%,60%);fill-opacity:1;" d="M 478.800781 504 L 504 504 L 504 25.199219 L 478.800781 25.199219 Z M 478.800781 504 "/>
<path style="fill-rule:nonzero;fill:rgb(0%,0%,0%);fill-opacity:1;stroke-width:0.75;stroke-linecap:round;stroke-linejoin:round;stroke:rgb(0%,0%,0%);stroke-opacity:1;stroke-miterlimit:10;" d="M 32.917969 480.058594 C 32.917969 485.019531 28.898438 489.039063 23.941406 489.039063 C 18.980469 489.039063 14.960938 485.019531 14.960938 480.058594 C 14.960938 475.101563 18.980469 471.082031 23.941406 471.082031 C 28.898438 471.082031 32.917969 475.101563 32.917969 480.058594 "/>
<path style="fill-rule:nonzero;fill:rgb(0%,0%,0%);fill-opacity:1;stroke-width:0.75;stroke-linecap:round;stroke-linejoin:round;stroke:rgb(0%,0%,0%);stroke-opacity:1;stroke-miterlimit:10;" d="M 32.917969 456.121094 C 32.917969 461.078125 28.898438 465.097656 23.941406 465.097656 C 18.980469 465.097656 14.960938 461.078125 14.960938 456.121094 C 14.960938 451.160156 18.980469 447.140625 23.941406 447.140625 C 28.898438 447.140625 32.917969 451.160156 32.917969 456.121094 "/>
<path style="fill-rule:nonzero;fill:rgb(0%,0%,0%);fill-opacity:1;stroke-width:0.75;stroke-linecap:round;stroke-linejoin:round;stroke:rgb(0%,0%,0%);stroke-opacity:1;stroke-miterlimit:10;" d="M 56.859375 480.058594 C 56.859375 485.019531 52.839844 489.039063 47.878906 489.039063 C 42.921875 489.039063 38.902344 485.019531 38.902344 480.058594 C 38.902344 475.101563 42.921875 471.082031 47.878906 471.082031 C 52.839844 471.082031 56.859375 475.101563 56.859375 480.058594 "/>
<path style="fill-rule:nonzero;fill:rgb(0%,0%,0%);fill-opacity:1;stroke-width:0.75;stroke-linecap:round;stroke-linejoin:round;stroke:rgb(0%,0%,0%);stroke-opacity:1;stroke-miterlimit:10;" d="M 80.796875 480.058594 C 80.796875 485.019531 76.777344 489.039063 71.820313 489.039063 C 66.863281 489.039063 62.84375 485.019531 62.84375 480.058594 C 62.84375 475.101563 66.863281 471.082031 71.820313 471.082031 C 76.777344 471.082031 80.796875 475.101563 80.796875 480.058594 "/>
<path style="fill-rule:nonzero;fill:rgb(0%,0%,0%);fill-opacity:1;stroke-width:0.75;stroke-linecap:round;stroke-linejoin:round;stroke:rgb(0%,0%,0%);stroke-opacity:1;stroke-miterlimit:10;" d="M 80.796875 456.121094 C 80.796875 461.078125 76.777344 465.097656 71.820313 465.097656 C 66.863281 465.097656 62.84375 461.078125 62.84375 456.121094 C 62.84375 451.160156 66.863281 447.140625 71.820313 447.140625 C 76.777344 447.140625 80.796875 451.160156 80.796875 456.121094 "/>
<path style="fill-rule:nonzero;fill:rgb(0%,0%,0%);fill-opacity:1;stroke-width:0.75;stroke-linecap:round;stroke-linejoin:round;stroke:rgb(0%,0%,0%);stroke-opacity:1;stroke-miterlimit:10;" d="M 80.796875 432.179688 C 80.796875 437.136719 76.777344 441.15625 71.820313 441.15625 C 66.863281 441.15625 62.84375 437.136719 62.84375 432.179688 C 62.84375 427.222656 66.863281 423.203125 71.820313 423.203125 C 76.777344 423.203125 80.796875 427.222656 80.796875 432.179688 "/>
<path style="fill-rule:nonzero;fill:rgb(0%,0%,0%);fill-opacity:1;stroke-width:0.75;stroke-linecap:round;stroke-linejoin:round;stroke:rgb(0%,0%,0%);stroke-opacity:1;stroke-miterlimit:10;" d="M 104.738281 480.058594 C 104.738281 485.019531 100.71875 489.039063 95.761719 489.039063 C 90.800781 489.039063 86.78125 485.019531 86.78125 480.058594 C 86.78125 475.101563 90.800781 471.082031 95.761719 471.082031 C 100.71875 471.082031 104.738281 475.101563 104.738281 480.058594 "/>
<path style="fill-rule:nonzero;fill:rgb(0%,0%,0%);fill-opacity:1;stroke-width:0.75;stroke-linecap:round;stroke-linejoin:round;stroke:rgb(0%,0%,0%);stroke-opacity:1;stroke-miterlimit:10;" d="M 104.738281 456.121094 C 104.738281 461.078125 100.71875 465.097656 95.761719 465.097656 C 90.800781 465.097656 86.78125 461.078125 86.78125 456.121094 C 86.78125 451.160156 90.800781 447.140625 95.761719 447.140625 C 100.71875 447.140625 104.738281 451.160156 104.738281 456.121094 "/>
<path style="fill-rule:nonzero;fill:rgb(0%,0%,0%);fill-opacity:1;stroke-width:0.75;stroke-linecap:round;stroke-linejoin:round;stroke:rgb(0%,0%,0%);stroke-opacity:1;stroke-miterlimit:10;" d="M 128.675781 480.058594 C 128.675781 485.019531 124.65625 489.039063 119.699219 489.039063 C 114.742188 489.039063 110.722656 485.019531 110.722656 480.058594 C 110.722656 475.101563 114.742188 471.082031 119.699219 471.082031 C 124.65625 471.082031 128.675781 475.101563 128.675781 480.058594 "/>
<path style="fill-rule:nonzero;fill:rgb(0%,0%,0%);fill-opacity:1;stroke-width:0.75;stroke-linecap:round;stroke-linejoin:round;stroke:rgb(0%,0%,0%);stroke-opacity:1;stroke-miterlimit:10;" d="M 128.675781 456.121094 C 128.675781 461.078125 124.65625 465.097656 119.699219 465.097656 C 114.742188 465.097656 110.722656 461.078125 110.722656 456.121094 C 110.722656 451.160156 114.742188 447.140625 119.699219 447.140625 C 124.65625 447.140625 128.675781 451.160156 128.675781 456.121094 "/>
<path style="fill-rule:nonzero;fill:rgb(0%,0%,0%);fill-opacity:1;stroke-width:0.75;stroke-linecap:round;stroke-linejoin:round;stroke:rgb(0%,0%,0%);stroke-opacity:1;stroke-miterlimit:10;" d="M 128.675781 432.179688 C 128.675781 437.136719 124.65625 441.15625 119.699219 441.15625 C 114.742188 441.15625 110.722656 437.136719 110.722656 432.179688 C 110.722656 427.222656 114.742188 423.203125 119.699219 423.203125 C 124.65625 423.203125 128.675781 427.222656 128.675781 432.179688 "/>
<path style="fill-rule:nonzero;fill:rgb(0%,0%,0%);fill-opacity:1;stroke-width:0.75;stroke-linecap:round;stroke-linejoin:round;stroke:rgb(0%,0%,0%);stroke-opacity:1;stroke-miterlimit:10;" d="M 128.675781 408.238281 C 128.675781 413.199219 124.65625 417.21875 119.699219 417.21875 C 114.742188 417.21875 110.722656 413.199219 110.722656 408.238281 C 110.722656 403.28125 114.742188 399.261719 119.699219 399.261719 C 124.65625 399.261719 128.675781 403.28125 128.675781 408.238281 "/>
<path style="fill-rule:nonzero;fill:rgb(0%,0%,0%);fill-opacity:1;stroke-width:0.75;stroke-linecap:round;stroke-linejoin:round;stroke:rgb(0%,0%,0%);stroke-opacity:1;stroke-miterlimit:10;" d="M 152.617188 480.058594 C 152.617188 485.019531 148.597656 489.039063 143.640625 489.039063 C 138.683594 489.039063 134.664063 485.019531 134.664063 480.058594 C 134.664063 475.101563 138.683594 471.082031 143.640625 471.082031 C 148.597656 471.082031 152.617188 475.101563 152.617188 480.058594 "/>
<path style="fill-rule:nonzero;fill:rgb(0%,0%,0%);fill-opacity:1;stroke-width:0.75;stroke-linecap:round;stroke-linejoin:round;stroke:rgb(0%,0%,0%);stroke-opacity:1;stroke-miterlimit:10;" d="M 176.558594 480.058594 C 176.558594 485.019531 172.539063 489.039063 167.578125 489.039063 C 162.621094 489.039063 158.601563 485.019531 158.601563 480.058594 C 158.601563 475.101563 162.621094 471.082031 167.578125 471.082031 C 172.539063 471.082031 176.558594 475.101563 176.558594 480.058594 "/>
<path style="fill-rule:nonzero;fill:rgb(0%,0%,0%);fill-opacity:1;stroke-width:0.75;stroke-linecap:round;stroke-linejoin:round;stroke:rgb(0%,0%,0%);stroke-opacity:1;stroke-miterlimit:10;" d="M 176.558594 456.121094 C 176.558594 461.078125 172.539063 465.097656 167.578125 465.097656 C 162.621094 465.097656 158.601563 461.078125 158.601563 456.121094 C 158.601563 451.160156 162.621094 447.140625 167.578125 447.140625 C 172.539063 447.140625 176.558594 451.160156 176.558594 456.121094 "/>
<path style="fill-rule:nonzero;fill:rgb(0%,0%,0%);fill-opacity:1;stroke-width:0.75;stroke-linecap:round;stroke-linejoin:round;stroke:rgb(0%,0%,0%);stroke-opacity:1;stroke-miterlimit:10;" d="M 176.558594 432.179688 C 176.558594 437.136719 172.539063 441.15625 167.578125 441.15625 C 162.621094 441.15625 158.601563 437.136719 158.601563 432.179688 C 158.601563 427.222656 162.621094 423.203125 167.578125 423.203125 C 172.539063 423.203125 176.558594 427.222656 176.558594 432.179688 "/>
<path style="fill-rule:nonzero;fill:rgb(0%,0%,0%);fill-opacity:1;stroke-width:0.75;stroke-linecap:round;stroke-linejoin:round;stroke:rgb(0%,0%,0%);stroke-opacity:1;stroke-miterlimit:10;" d="M 200.496094 480.058594 C 200.496094 485.019531 196.476563 489.039063 191.519531 489.039063 C 186.5625 489.039063 182.542969 485.019531 182.542969 480.058594 C 182.542969 475.101563 186.5625 471.082031 191.519531 471.082031 C 196.476563 471.082031 200.496094 475.101563 200.496094 480.058594 "/>
<path style="fill-rule:nonzero;fill:rgb(0%,0%,0%);fill-opacity:1;stroke-width:0.75;stroke-linecap:round;stroke-linejoin:round;stroke:rgb(0%,0%,0%);stroke-opacity:1;stroke-miterlimit:10;" d="M 200.496094 456.121094 C 200.496094 461.078125 196.476563 465.097656 191.519531 465.097656 C 186.5625 465.097656 182.542969 461.078125 182.542969 456.121094 C 182.542969 451.160156 186.5625 447.140625 191.519531 447.140625 C 196.476563 447.140625 200.496094 451.160156 200.496094 456.121094 "/>
<path style="fill-rule:nonzero;fill:rgb(0%,0%,0%);fill-opacity:1;stroke-width:0.75;stroke-linecap:round;stroke-linejoin:round;stroke:rgb(0%,0%,0%);stroke-opacity:1;stroke-miterlimit:10;" d="M 224.4375 480.058594 C 224.4375 485.019531 220.417969 489.039063 215.460938 489.039063 C 210.5 489.039063 206.484375 485.019531 206.484375 480.058594 C 206.484375 475.101563 210.5 471.082031 215.460938 471.082031 C 220.417969 471.082031 224.4375 475.101563 224.4375 480.058594 "/>
<path style="fill-rule:nonzero;fill:rgb(0%,0%,0%);fill-opacity:1;stroke-width:0.75;stroke-linecap:round;stroke-linejoin:round;stroke:rgb(0%,0%,0%);stroke-opacity:1;stroke-miterlimit:10;" d="M 272.316406 49.140625 C 272.316406 54.097656 268.296875 58.117188 263.339844 58.117188 C 258.382813 58.117188 254.363281 54.097656 254.363281 49.140625 C 254.363281 44.183594 258.382813 40.164063 263.339844 40.164063 C 268.296875 40.164063 272.316406 44.183594 272.316406 49.140625 "/>
<path style="fill-rule:nonzero;fill:rgb(0%,0%,0%);fill-opacity:1;stroke-width:0.75;stroke-linecap:round;stroke-linejoin:round;stroke:rgb(0%,0%,0%);stroke-opacity:1;stroke-miterlimit:10;" d="M 310.621094 87.445313 C 310.621094 92.402344 306.601563 96.421875 301.644531 96.421875 C 296.6875 96.421875 292.667969 92.402344 292.667969 87.445313 C 292.667969 82.484375 296.6875 78.464844 301.644531 78.464844 C 306.601563 78.464844 310.621094 82.484375 310.621094 87.445313 "/>
<path style="fill-rule:nonzero;fill:rgb(0%,0%,0%);fill-opacity:1;stroke-width:0.75;stroke-linecap:round;stroke-linejoin:round;stroke:rgb(0%,0%,0%);stroke-opacity:1;stroke-miterlimit:10;" d="M 348.925781 125.746094 C 348.925781 130.707031 344.90625 134.726563 339.949219 134.726563 C 334.988281 134.726563 330.96875 130.707031 330.96875 125.746094 C 330.96875 120.789063 334.988281 116.769531 339.949219 116.769531 C 344.90625 116.769531 348.925781 120.789063 348.925781 125.746094 "/>
<path style="fill-rule:nonzero;fill:rgb(0%,0%,0%);fill-opacity:1;stroke-width:0.75;stroke-linecap:round;stroke-linejoin:round;stroke:rgb(0%,0%,0%);stroke-opacity:1;stroke-miterlimit:10;" d="M 387.230469 164.050781 C 387.230469 169.011719 383.210938 173.03125 378.253906 173.03125 C 373.292969 173.03125 369.273438 169.011719 369.273438 164.050781 C 369.273438 159.09375 373.292969 155.074219 378.253906 155.074219 C 383.210938 155.074219 387.230469 159.09375 387.230469 164.050781 "/>
<path style="fill-rule:nonzero;fill:rgb(0%,0%,0%);fill-opacity:1;stroke-width:0.75;stroke-linecap:round;stroke-linejoin:round;stroke:rgb(0%,0%,0%);stroke-opacity:1;stroke-miterlimit:10;" d="M 425.535156 202.355469 C 425.535156 207.3125 421.515625 211.332031 416.554688 211.332031 C 411.597656 211.332031 407.578125 207.3125 407.578125 202.355469 C 407.578125 197.398438 411.597656 193.378906 416.554688 193.378906 C 421.515625 193.378906 425.535156 197.398438 425.535156 202.355469 "/>
<path style="fill-rule:nonzero;fill:rgb(0%,0%,0%);fill-opacity:1;stroke-width:0.75;stroke-linecap:round;stroke-linejoin:round;stroke:rgb(0%,0%,0%);stroke-opacity:1;stroke-miterlimit:10;" d="M 463.835938 240.660156 C 463.835938 245.617188 459.816406 249.636719 454.859375 249.636719 C 449.902344 249.636719 445.882813 245.617188 445.882813 240.660156 C 445.882813 235.703125 449.902344 231.683594 454.859375 231.683594 C 459.816406 231.683594 463.835938 235.703125 463.835938 240.660156 "/>
<path style=" stroke:none;fill-rule:nonzero;fill:rgb(0%,0%,0%);fill-opacity:1;" d="M -1.195313 264.601563 L 49.078125 264.601563 L 49.078125 25.203125 L -1.195313 25.203125 Z M -1.195313 264.601563 "/>
<path style=" stroke:none;fill-rule:nonzero;fill:rgb(25.098039%,25.098039%,25.098039%);fill-opacity:1;" d="M 46.683594 264.601563 L 96.957031 264.601563 L 96.957031 25.203125 L 46.683594 25.203125 Z M 46.683594 264.601563 "/>
<path style=" stroke:none;fill-rule:nonzero;fill:rgb(50.196078%,50.196078%,50.196078%);fill-opacity:1;" d="M 94.5625 264.601563 L 144.835938 264.601563 L 144.835938 25.203125 L 94.5625 25.203125 Z M 94.5625 264.601563 "/>
<path style=" stroke:none;fill-rule:nonzero;fill:rgb(74.901961%,74.901961%,74.901961%);fill-opacity:1;" d="M 142.441406 264.601563 L 192.714844 264.601563 L 192.714844 25.203125 L 142.441406 25.203125 Z M 142.441406 264.601563 "/>
<path style=" stroke:none;fill-rule:nonzero;fill:rgb(100%,100%,100%);fill-opacity:1;" d="M 190.324219 264.601563 L 240.597656 264.601563 L 240.597656 25.203125 L 190.324219 25.203125 Z M 190.324219 264.601563 "/>
<path style=" stroke:none;fill-rule:nonzero;fill:rgb(49.803922%,49.803922%,49.803922%);fill-opacity:1;" d="M 284.886719 468.089844 C 284.886719 473.378906 280.597656 477.664063 275.308594 477.664063 C 270.019531 477.664063 265.734375 473.378906 265.734375 468.089844 C 265.734375 462.800781 270.019531 458.515625 275.308594 458.515625 C 280.597656 458.515625 284.886719 462.800781 284.886719 468.089844 "/>
<path style=" stroke:none;fill-rule:nonzero;fill:rgb(49.803922%,49.803922%,49.803922%);fill-opacity:1;" d="M 330.371094 432.179688 C 330.371094 442.757813 321.796875 451.332031 311.21875 451.332031 C 300.644531 451.332031 292.066406 442.757813 292.066406 432.179688 C 292.066406 421.601563 300.644531 413.027344 311.21875 413.027344 C 321.796875 413.027344 330.371094 421.601563 330.371094 432.179688 "/>
<path style=" stroke:none;fill-rule:nonzero;fill:rgb(49.803922%,49.803922%,49.803922%);fill-opacity:1;" d="M 387.828125 384.300781 C 387.828125 400.167969 374.964844 413.027344 359.101563 413.027344 C 343.234375 413.027344 330.371094 400.167969 330.371094 384.300781 C 330.371094 368.433594 343.234375 355.570313 359.101563 355.570313 C 374.964844 355.570313 387.828125 368.433594 387.828125 384.300781 "/>
<path style=" stroke:none;fill-rule:nonzero;fill:rgb(49.803922%,49.803922%,49.803922%);fill-opacity:1;" d="M 457.253906 324.449219 C 457.253906 345.605469 440.105469 362.753906 418.949219 362.753906 C 397.796875 362.753906 380.644531 345.605469 380.644531 324.449219 C 380.644531 303.296875 397.796875 286.144531 418.949219 286.144531 C 440.105469 286.144531 457.253906 303.296875 457.253906 324.449219 "/>
<path style="fill:none;stroke-width:0.75;stroke-linecap:round;stroke-linejoin:round;stroke:rgb(0%,0%,0%);stroke-opacity:1;stroke-miterlimit:10;" d="M 0 264.601563 L 504 264.601563 "/>
<path style="fill:none;stroke-width:0.75;stroke-linecap:round;stroke-linejoin:round;stroke:rgb(0%,0%,0%);stroke-opacity:1;stroke-miterlimit:10;" d="M 239.398438 504 L 239.398438 0 "/>
</g>
</svg>
